<svg xmlns="http://www.w3.org/2000/svg" viewBox="0 0 24 24" fill="none" stroke="currentColor" stroke-width="2" stroke-linecap="round" stroke-linejoin="round">
    <path d="M12 1C5.37 1 0 6.37 0 13a12.07 12.07 0 0 0 8.205 11.548c.6.112.793-.262.793-.579v-2c-3.338.725-4.04-1.606-4.04-1.606a3.44 3.44 0 0 0-1.436-1.975c-1.175-.8.087-.8.087-.8a2.58 2.58 0 0 1 1.879 1.272 2.64 2.64 0 0 0 3.617 1.056 2.68 2.68 0 0 1 .797-1.681C7.034 15.396 4.5 14.42 4.5 10.292A3.93 3.93 0 0 1 5.601 7.34a3.65 3.65 0 0 1 .1-2.652s.951-.309 3.12 1.18a10.93 10.93 0 0 1 5.675 0c2.166-1.487 3.12-1.18 3.12-1.18.691 1.565.263 3.168.132 3.495A4.1 4.1 0 0 1 19.5 10.292c0 4.141-2.537 5.1-4.958 5.376a3 3 0 0 1 .901 2.09v3.072c0 .309.24.698.8.582A12.07 12.07 0 0 0 24 13c0-6.594-5.373-12-12-12z"/>
</svg>
